Coordinates
version=1
nRows=19
nColumns=18
inDegrees=no

Units are S.I. units (second, meters, Newtons, ...)
If the header above contains a line with 'inDegrees', this indicates whether rotational values are in degrees (yes) or radians (no).

endheader
time	ground_thorax_rot_x	ground_thorax_rot_y	ground_thorax_rot_z	ground_thorax_tx	ground_thorax_ty	ground_thorax_tz	clav_prot	clav_elev	scapula_abduction	scapula_elevation	scapula_upward_rot	scapula_winging	shoulder_elv	plane_of_elev	axial_rot	elbow_flexion	pro_sup
     23.22000000	      7.23192160	    -44.42916985	     -3.17959086	     -3.08053950	     -0.02607496	      1.44029287	     -4.39278054	     -2.97338748	     -6.47458983	     -2.60533206	     10.84276489	      1.45721999	     26.43122853	    -13.05706337	     37.43230193	     57.91177687	      9.87030049
     23.24000000	      7.11494246	    -41.86302482	     -2.79295072	     -3.01372695	     -0.02113715	      1.39819534	     -3.15803631	     -3.96587059	     -5.07640933	     -2.86622156	      9.32283629	      1.73747088	     26.99780514	    -11.67315840	     35.29467019	     52.25167333	      9.90374830
     23.26000000	      5.49490360	    -38.54155655	     -3.06409698	     -2.95854692	     -0.02569321	      1.37272194	     -2.78885100	     -3.51484002	     -4.76551060	     -2.29696250	      9.00810755	      1.59673156	     26.89967730	    -12.39795727	     34.56443681	     50.15773654	      9.76903353
     23.28000000	      5.41768772	    -33.62952129	     -2.61106301	     -2.98281260	     -0.02984318	      1.35864347	     -2.28189643	     -3.83952838	     -3.50484709	     -2.75517422	      9.39080769	      1.35806101	     27.38475871	    -12.17777402	     34.84559826	     49.11922039	      9.80270235
     23.30000000	      5.72519442	    -32.55566790	     -2.50021586	     -2.99553062	     -0.02413053	      1.35649267	     -2.48487524	     -4.52937089	     -3.79826449	     -3.33953871	      9.22557489	      1.65513197	     27.80792920	    -12.22020275	     33.09922863	     45.76950637	      9.65748540
     23.32000000	      4.31354689	    -28.76201595	     -4.14197526	     -3.00572903	     -0.02546172	      1.33999185	     -2.88540314	     -4.11016177	     -4.75604367	     -2.87159616	      9.03187745	      1.76288906	     28.94404040	    -13.62417490	     30.64860496	     38.67326508	      9.13779246
     23.34000000	      4.39812043	    -23.71971357	     -3.51834838	     -3.03635046	     -0.02432604	      1.33016011	     -2.17847394	     -4.22488386	     -3.81472890	     -2.74914143	      8.53288839	      1.67746058	     29.94868045	    -14.19291821	     30.72173197	     33.02129871	      9.34760643
     23.36000000	      4.33232155	    -23.65583260	     -3.61813027	     -3.02913921	     -0.02289182	      1.32672752	     -2.14333258	     -4.30895836	     -3.76777879	     -2.80428345	      8.47827088	      1.70096715	     29.79582240	    -14.05440187	     30.70930659	     32.99346624	      9.34435078
     23.38000000	      2.87903421	    -18.32756892	     -4.18006075	     -3.01579625	     -0.02686156	      1.30086142	     -0.99675193	     -3.67567476	     -2.59502069	     -1.73264390	      7.44637599	      1.41829915	     28.81110546	    -11.15761598	     29.77591185	     34.05946457	      9.22764249
     23.40000000	      2.85619038	    -18.30113569	     -4.26859648	     -3.00849831	     -0.02454025	      1.29760220	     -1.01986286	     -3.77136461	     -2.59273856	     -1.83545556	      7.47336958	      1.43993437	     28.66100584	    -11.02761304	     29.71862016	     34.24100949	      9.20851650
     23.42000000	      3.35190487	    -12.77722452	     -2.42027284	     -2.95463514	     -0.02123191	      1.26015786	     -2.44065498	     -3.45322453	     -3.95419537	     -2.35824510	      9.30459042	      1.35754927	     26.95117916	    -14.78173828	     26.94748769	     38.68473551	      8.18965291
     23.44000000	      3.45983740	    -12.84387600	     -2.00778949	     -2.97049697	     -0.02144227	      1.26715688	     -2.47535065	     -3.38973454	     -3.99747990	     -2.32131872	      9.35618821	      1.34007512	     27.06750907	    -14.83475657	     26.93845717	     38.60106579	      8.18811377
     23.46000000	      2.02871939	     -8.60163943	     -3.27111394	     -2.93898689	     -0.02740328	      1.23681703	     -1.93669904	     -2.95411375	     -3.32963326	     -1.79534596	      9.11202817	      1.11615967	     27.56374994	    -16.20932800	     26.69860024	     35.50077198	      8.29996669
     23.48000000	      1.69227426	     -5.14916862	     -3.81508204	     -2.92821769	     -0.02634442	      1.21203434	     -3.43972673	     -2.49741612	     -4.52759373	     -2.35848893	     11.37462164	      0.85274668	     25.50402675	    -18.22079057	     24.29928415	     33.32952664	      7.78396347
     23.50000000	      1.68844423	     -5.15306607	     -3.93785164	     -2.92253305	     -0.02486223	      1.20815631	     -3.43015947	     -2.58296261	     -4.47911676	     -2.44148762	     11.38247891	      0.86531275	     25.42573828	    -18.06914075	     24.30169583	     33.38305916	      7.78154652
     23.52000000	      1.91261035	     -1.80072627	     -5.29171752	     -2.90126382	     -0.01799318	      1.16562429	     -2.60991781	     -2.99366639	     -3.40407594	     -2.51471927	     10.68271137	      0.87980361	     26.89162096	    -18.02813485	     23.96776000	     29.41492093	      7.88059378
     23.54000000	      1.94575057	     -2.20881887	     -5.27090731	     -2.90269964	     -0.01697036	      1.16777114	     -2.46363069	     -2.76267728	     -3.75036031	     -1.97604113	      9.92819541	      1.01666258	     27.04108010	    -16.53812275	     22.70515393	     28.02652625	      7.88853587
     23.56000000	      0.58233354	     -1.75047705	     -5.64971684	     -2.83780133	     -0.00826729	      1.14227295	     -2.58483356	     -5.48880384	     -3.50090060	     -4.38871896	      9.56186599	      1.85177176	     26.93154608	    -17.88171174	     25.28971403	     22.65610658	      8.00969909
     23.58000000	      0.74586321	      0.59530952	     -7.21682057	     -2.81394524	     -0.00981984	      1.10804468	     -2.28232289	     -5.86327993	     -2.94136489	     -4.69776212	      9.47437628	      1.86946369	     27.69831457	    -18.25479234	     25.77689258	     22.25343829	      7.91393697
